# xmcd CD database file
#
# Track frame offsets:
#	150
#	16450
#	35775
#	55562
#	67650
#	86362
#	104062
#	118262
#	135750
#	156000
#
# Disc length: 2321 seconds
#
# Revision: 0
# Processed by: cddbd v1.5PL3 Copyright (c) Steve Scherf et al.
# Submitted via: CDex 1.50
#
DISCID=78090f0a
DTITLE=平野文 - Ｆｕｍｉのラムソング
DYEAR=1986
DGENRE=Anime
TTITLE0=殿方ごめん遊ばせ
TTITLE1=トライアングル ラブレター
TTITLE2=メランコリーの軌夢はＬｏｖｅ ｍｅ ｍｏｒｅ
TTITLE3=夢はＬｏｖｅ ｍｅ ｍｏｒｅ
TTITLE4=Ｇｏｏｄ Ｌｕｃｋ“永遠より愛をこめて”
TTITLE5=ラムのバラード
TTITLE6=心細いな
TTITLE7=影ふみのワルツ
TTITLE8=Ｉ，Ｉ， Ｙｏｕ ＆ 愛
TTITLE9=ア・リ・ガ・ト！
EXTD=YEAR: 1986
EXTT0=
EXTT1=
EXTT2=
EXTT3=
EXTT4=
EXTT5=
EXTT6=
EXTT7=
EXTT8=
EXTT9=
PLAYORDER=
